<svg xmlns="http://www.w3.org/2000/svg" xmlns:xlink="http://www.w3.org/1999/xlink" width="40" zoomAndPan="magnify" viewBox="0 0 30 30.000001" height="40" preserveAspectRatio="xMidYMid meet" version="1.0"><defs><clipPath id="4bb1925c56"><path d="M 1.210938 0.726562 L 28.789062 0.726562 L 28.789062 28.304688 L 1.210938 28.304688 Z M 1.210938 0.726562 " clip-rule="nonzero"/></clipPath></defs><g clip-path="url(#4bb1925c56)"><path fill="#ff3131" d="M 15 2.976562 C 21.363281 2.976562 26.539062 8.152344 26.539062 14.515625 C 26.539062 20.878906 21.363281 26.054688 15 26.054688 C 8.636719 26.054688 3.460938 20.878906 3.460938 14.515625 C 3.460938 8.152344 8.636719 2.976562 15 2.976562 Z M 15 28.304688 C 22.617188 28.304688 28.789062 22.132812 28.789062 14.515625 C 28.789062 6.898438 22.617188 0.726562 15 0.726562 C 7.382812 0.726562 1.210938 6.898438 1.210938 14.515625 C 1.210938 22.132812 7.382812 28.304688 15 28.304688 " fill-opacity="1" fill-rule="nonzero"/></g><path fill="#ff3131" d="M 14.773438 18.433594 C 13.914062 18.433594 13.050781 18.105469 11.941406 17.285156 L 10.425781 19.667969 C 11.449219 20.589844 12.90625 21.082031 14.078125 21.226562 L 14.078125 23.277344 L 16.375 23.277344 L 16.375 21.101562 C 18.527344 20.589844 19.574219 19.03125 19.574219 17.039062 C 19.574219 13.304688 14.28125 13.222656 14.28125 11.664062 C 14.28125 10.84375 14.710938 10.597656 15.59375 10.597656 C 16.355469 10.597656 16.992188 10.925781 17.730469 11.582031 L 19.472656 9.570312 C 18.652344 8.710938 17.667969 8.054688 16.375 7.847656 L 16.375 5.753906 L 14.078125 5.753906 L 14.078125 7.890625 C 12.085938 8.320312 10.917969 9.757812 10.917969 11.828125 C 10.917969 15.417969 16.210938 15.644531 16.210938 17.285156 C 16.210938 18.085938 15.800781 18.433594 14.773438 18.433594 " fill-opacity="1" fill-rule="nonzero"/></svg>