<svg xmlns="http://www.w3.org/2000/svg" xmlns:xlink="http://www.w3.org/1999/xlink" width="40" zoomAndPan="magnify" viewBox="0 0 30 30.000001" height="40" preserveAspectRatio="xMidYMid meet" version="1.0"><defs><clipPath id="279d91aa4f"><path d="M 1.265625 0.832031 L 28.84375 0.832031 L 28.84375 28.410156 L 1.265625 28.410156 Z M 1.265625 0.832031 " clip-rule="nonzero"/></clipPath></defs><g clip-path="url(#279d91aa4f)"><path fill="#ff3131" d="M 25.886719 14.695312 C 25.890625 14.5625 25.992188 14.40625 26.109375 14.347656 L 28.5 13.152344 C 28.617188 13.09375 28.695312 12.9375 28.675781 12.808594 L 28.125 10.269531 C 28.089844 10.140625 27.953125 10.03125 27.820312 10.023438 L 25.101562 9.847656 C 24.972656 9.839844 24.816406 9.734375 24.753906 9.617188 L 24.386719 8.9375 C 24.320312 8.824219 24.320312 8.640625 24.386719 8.527344 L 25.761719 6.210938 C 25.828125 6.097656 25.8125 5.925781 25.726562 5.824219 L 23.875 3.941406 C 23.777344 3.851562 23.605469 3.832031 23.488281 3.894531 L 21.125 5.207031 C 21.007812 5.269531 20.824219 5.269531 20.710938 5.199219 L 20.070312 4.835938 C 19.953125 4.773438 19.855469 4.617188 19.851562 4.484375 L 19.753906 1.773438 C 19.75 1.640625 19.640625 1.503906 19.515625 1.464844 L 16.953125 0.851562 C 16.824219 0.828125 16.667969 0.90625 16.605469 1.019531 L 15.335938 3.390625 C 15.273438 3.503906 15.167969 3.597656 15.101562 3.597656 L 15.039062 3.597656 C 14.671875 3.597656 14.183594 3.632812 14.183594 3.632812 C 14.054688 3.644531 13.882812 3.5625 13.808594 3.457031 L 12.253906 1.214844 C 12.179688 1.109375 12.015625 1.050781 11.886719 1.082031 L 9.441406 1.910156 C 9.320312 1.957031 9.226562 2.105469 9.238281 2.238281 L 9.445312 4.898438 C 9.457031 5.03125 9.375 5.195312 9.265625 5.265625 L 8.484375 5.804688 C 8.378906 5.882812 8.195312 5.90625 8.074219 5.855469 L 5.554688 4.8125 C 5.433594 4.761719 5.261719 4.800781 5.171875 4.898438 L 3.601562 6.847656 C 3.527344 6.953125 3.527344 7.125 3.605469 7.230469 L 5.214844 9.347656 C 5.292969 9.453125 5.3125 9.636719 5.257812 9.753906 L 4.820312 10.800781 C 4.773438 10.921875 4.632812 11.042969 4.5 11.066406 L 1.828125 11.550781 C 1.699219 11.574219 1.578125 11.699219 1.554688 11.828125 C 1.554688 11.828125 1.292969 13.472656 1.292969 14.453125 L 1.292969 14.457031 C 1.292969 14.464844 1.394531 14.503906 1.519531 14.550781 L 4.011719 15.460938 C 4.136719 15.507812 4.253906 15.648438 4.273438 15.78125 L 4.503906 17.054688 C 4.535156 17.183594 4.480469 17.363281 4.382812 17.453125 L 2.40625 19.292969 C 2.3125 19.378906 2.277344 19.550781 2.332031 19.671875 L 3.410156 21.761719 C 3.476562 21.875 3.636719 21.945312 3.761719 21.914062 L 6.363281 21.332031 C 6.492188 21.300781 6.667969 21.359375 6.757812 21.457031 L 7.714844 22.453125 C 7.8125 22.546875 7.863281 22.722656 7.828125 22.851562 L 7.167969 25.449219 C 7.136719 25.574219 7.199219 25.738281 7.308594 25.808594 L 9.339844 26.953125 C 9.460938 27.011719 9.632812 26.980469 9.722656 26.886719 L 11.609375 24.980469 C 11.699219 24.886719 11.878906 24.835938 12.007812 24.871094 L 13.347656 25.167969 C 13.476562 25.191406 13.617188 25.3125 13.65625 25.4375 L 14.496094 27.960938 C 14.539062 28.085938 14.679688 28.191406 14.8125 28.195312 C 14.8125 28.195312 14.882812 28.199219 15.039062 28.199219 C 15.847656 28.199219 17.171875 28.023438 17.171875 28.023438 C 17.300781 28.007812 17.429688 27.886719 17.457031 27.757812 L 18.015625 25.113281 C 18.042969 24.984375 18.164062 24.847656 18.289062 24.804688 L 19.46875 24.359375 C 19.589844 24.304688 19.773438 24.332031 19.875 24.414062 L 21.941406 26.078125 C 22.042969 26.164062 22.21875 26.167969 22.328125 26.09375 L 24.265625 24.625 C 24.367188 24.539062 24.410156 24.367188 24.363281 24.246094 L 23.398438 21.703125 C 23.351562 21.582031 23.378906 21.394531 23.460938 21.292969 L 24.101562 20.417969 C 24.175781 20.308594 24.34375 20.234375 24.472656 20.246094 L 27.117188 20.53125 C 27.25 20.542969 27.398438 20.457031 27.449219 20.335938 L 28.316406 17.96875 C 28.355469 17.839844 28.300781 17.675781 28.195312 17.597656 L 26 15.976562 C 25.894531 15.898438 25.816406 15.726562 25.828125 15.597656 Z M 15.003906 22.515625 C 10.582031 22.515625 6.992188 18.929688 6.992188 14.503906 C 6.992188 10.078125 10.578125 6.492188 15.003906 6.492188 C 19.429688 6.492188 23.015625 10.078125 23.015625 14.503906 C 23.015625 18.929688 19.429688 22.515625 15.003906 22.515625 Z M 15.003906 22.515625 " fill-opacity="1" fill-rule="nonzero"/></g></svg>