<svg xmlns="http://www.w3.org/2000/svg" xmlns:xlink="http://www.w3.org/1999/xlink" width="40" zoomAndPan="magnify" viewBox="0 0 30 30.000001" height="40" preserveAspectRatio="xMidYMid meet" version="1.0"><defs><clipPath id="c245cb2133"><path d="M 3 1.371094 L 29.152344 1.371094 L 29.152344 16 L 3 16 Z M 3 1.371094 " clip-rule="nonzero"/></clipPath><clipPath id="4146d5eecd"><path d="M 0.847656 13 L 27 13 L 27 27.5 L 0.847656 27.5 Z M 0.847656 13 " clip-rule="nonzero"/></clipPath></defs><g clip-path="url(#c245cb2133)"><path fill="#ff3131" d="M 28.773438 11.765625 C 28.679688 11.667969 28.574219 11.59375 28.453125 11.542969 C 28.328125 11.488281 28.203125 11.460938 28.070312 11.457031 C 27.9375 11.453125 27.808594 11.476562 27.6875 11.527344 C 27.5625 11.574219 27.453125 11.644531 27.355469 11.734375 L 26.894531 12.175781 C 26.820312 11.445312 26.679688 10.726562 26.472656 10.023438 C 26.265625 9.320312 25.996094 8.636719 25.667969 7.984375 C 25.335938 7.328125 24.945312 6.707031 24.5 6.125 C 24.054688 5.539062 23.558594 5.003906 23.015625 4.507812 C 22.472656 4.015625 21.886719 3.578125 21.261719 3.191406 C 20.636719 2.808594 19.980469 2.484375 19.296875 2.21875 C 18.609375 1.953125 17.90625 1.753906 17.183594 1.621094 C 16.460938 1.484375 15.734375 1.417969 15 1.414062 C 14.367188 1.414062 13.738281 1.460938 13.113281 1.554688 C 12.488281 1.652344 11.875 1.800781 11.273438 1.996094 C 10.671875 2.191406 10.089844 2.433594 9.527344 2.722656 C 8.964844 3.011719 8.429688 3.34375 7.921875 3.71875 C 7.410156 4.09375 6.933594 4.503906 6.492188 4.957031 C 6.050781 5.40625 5.644531 5.890625 5.277344 6.40625 C 4.914062 6.921875 4.589844 7.464844 4.3125 8.03125 C 4.03125 8.597656 3.800781 9.183594 3.617188 9.789062 C 3.574219 9.917969 3.558594 10.050781 3.566406 10.183594 C 3.578125 10.320312 3.613281 10.445312 3.675781 10.566406 C 3.738281 10.6875 3.820312 10.789062 3.921875 10.878906 C 4.027344 10.964844 4.144531 11.027344 4.273438 11.066406 C 4.402344 11.105469 4.535156 11.121094 4.667969 11.105469 C 4.804688 11.09375 4.929688 11.054688 5.046875 10.988281 C 5.167969 10.925781 5.269531 10.839844 5.351562 10.734375 C 5.4375 10.628906 5.496094 10.511719 5.535156 10.378906 C 5.6875 9.878906 5.882812 9.390625 6.113281 8.917969 C 6.34375 8.445312 6.613281 7.996094 6.917969 7.566406 C 7.222656 7.140625 7.558594 6.738281 7.925781 6.363281 C 8.296875 5.988281 8.691406 5.644531 9.113281 5.332031 C 9.539062 5.023438 9.984375 4.746094 10.453125 4.507812 C 10.917969 4.265625 11.402344 4.066406 11.902344 3.902344 C 12.402344 3.742188 12.914062 3.621094 13.433594 3.539062 C 13.953125 3.460938 14.472656 3.421875 15 3.421875 C 15.585938 3.425781 16.171875 3.476562 16.746094 3.582031 C 17.324219 3.683594 17.890625 3.839844 18.441406 4.042969 C 18.992188 4.246094 19.519531 4.5 20.027344 4.796875 C 20.53125 5.09375 21.007812 5.433594 21.457031 5.816406 C 21.902344 6.199219 22.3125 6.617188 22.683594 7.070312 C 23.054688 7.523438 23.382812 8.007812 23.671875 8.519531 C 23.957031 9.035156 24.195312 9.566406 24.386719 10.121094 C 24.582031 10.675781 24.722656 11.246094 24.8125 11.824219 L 24.757812 11.765625 C 24.5625 11.589844 24.332031 11.503906 24.070312 11.507812 C 23.808594 11.511719 23.582031 11.605469 23.390625 11.785156 C 23.203125 11.96875 23.097656 12.191406 23.082031 12.453125 C 23.066406 12.714844 23.144531 12.949219 23.3125 13.148438 L 25.226562 15.15625 C 25.421875 15.367188 25.664062 15.472656 25.953125 15.46875 C 25.980469 15.46875 26.011719 15.46875 26.042969 15.457031 C 26.277344 15.449219 26.476562 15.355469 26.644531 15.1875 L 28.742188 13.179688 C 28.835938 13.089844 28.910156 12.980469 28.964844 12.859375 C 29.019531 12.738281 29.046875 12.613281 29.046875 12.480469 C 29.050781 12.347656 29.027344 12.21875 28.980469 12.09375 C 28.933594 11.972656 28.863281 11.859375 28.773438 11.765625 Z M 28.773438 11.765625 " fill-opacity="1" fill-rule="nonzero"/></g><g clip-path="url(#4146d5eecd)"><path fill="#ff3131" d="M 25.71875 17.886719 C 25.59375 17.847656 25.460938 17.832031 25.328125 17.847656 C 25.199219 17.859375 25.074219 17.894531 24.953125 17.957031 C 24.835938 18.019531 24.734375 18.101562 24.652344 18.207031 C 24.566406 18.308594 24.503906 18.421875 24.464844 18.550781 C 24.3125 19.054688 24.117188 19.539062 23.886719 20.011719 C 23.65625 20.484375 23.386719 20.933594 23.082031 21.363281 C 22.777344 21.789062 22.441406 22.191406 22.074219 22.566406 C 21.703125 22.941406 21.308594 23.285156 20.886719 23.597656 C 20.460938 23.90625 20.015625 24.183594 19.546875 24.421875 C 19.082031 24.664062 18.597656 24.863281 18.097656 25.027344 C 17.597656 25.1875 17.085938 25.308594 16.566406 25.390625 C 16.046875 25.472656 15.527344 25.507812 15 25.507812 C 14.414062 25.503906 13.828125 25.453125 13.253906 25.347656 C 12.675781 25.246094 12.109375 25.089844 11.558594 24.886719 C 11.007812 24.683594 10.480469 24.429688 9.972656 24.132812 C 9.46875 23.835938 8.992188 23.496094 8.542969 23.113281 C 8.097656 22.734375 7.6875 22.3125 7.316406 21.859375 C 6.945312 21.40625 6.617188 20.921875 6.328125 20.410156 C 6.042969 19.898438 5.804688 19.363281 5.613281 18.808594 C 5.417969 18.253906 5.277344 17.683594 5.1875 17.105469 L 5.242188 17.164062 C 5.335938 17.261719 5.441406 17.335938 5.5625 17.390625 C 5.683594 17.445312 5.8125 17.472656 5.945312 17.476562 C 6.078125 17.480469 6.207031 17.457031 6.328125 17.40625 C 6.453125 17.359375 6.5625 17.289062 6.660156 17.195312 C 6.753906 17.101562 6.828125 16.996094 6.882812 16.875 C 6.933594 16.753906 6.960938 16.625 6.964844 16.492188 C 6.96875 16.359375 6.945312 16.234375 6.898438 16.109375 C 6.851562 15.984375 6.78125 15.875 6.6875 15.78125 L 4.773438 13.773438 C 4.550781 13.535156 4.28125 13.4375 3.957031 13.472656 C 3.722656 13.484375 3.523438 13.574219 3.355469 13.742188 L 1.257812 15.75 C 1.164062 15.84375 1.089844 15.949219 1.035156 16.070312 C 0.980469 16.191406 0.953125 16.320312 0.953125 16.453125 C 0.949219 16.582031 0.972656 16.710938 1.019531 16.835938 C 1.066406 16.960938 1.136719 17.070312 1.226562 17.164062 C 1.320312 17.261719 1.425781 17.335938 1.546875 17.390625 C 1.667969 17.445312 1.796875 17.472656 1.929688 17.476562 C 2.0625 17.480469 2.191406 17.457031 2.316406 17.40625 C 2.4375 17.359375 2.546875 17.289062 2.644531 17.195312 L 3.105469 16.753906 C 3.179688 17.484375 3.320312 18.203125 3.527344 18.90625 C 3.734375 19.613281 4.003906 20.292969 4.332031 20.945312 C 4.664062 21.601562 5.054688 22.222656 5.5 22.804688 C 5.945312 23.390625 6.441406 23.925781 6.984375 24.421875 C 7.527344 24.914062 8.113281 25.351562 8.738281 25.738281 C 9.363281 26.121094 10.019531 26.445312 10.707031 26.710938 C 11.390625 26.976562 12.09375 27.175781 12.816406 27.308594 C 13.539062 27.445312 14.265625 27.511719 15 27.515625 C 15.632812 27.519531 16.261719 27.472656 16.886719 27.375 C 17.511719 27.277344 18.125 27.128906 18.726562 26.933594 C 19.328125 26.738281 19.910156 26.496094 20.472656 26.207031 C 21.035156 25.917969 21.570312 25.585938 22.078125 25.210938 C 22.589844 24.839844 23.066406 24.425781 23.507812 23.972656 C 23.949219 23.523438 24.355469 23.039062 24.722656 22.523438 C 25.085938 22.007812 25.410156 21.464844 25.6875 20.898438 C 25.96875 20.332031 26.199219 19.746094 26.382812 19.140625 C 26.421875 19.011719 26.4375 18.882812 26.421875 18.75 C 26.410156 18.617188 26.375 18.492188 26.3125 18.375 C 26.25 18.257812 26.167969 18.15625 26.0625 18.070312 C 25.960938 17.988281 25.847656 17.925781 25.71875 17.886719 Z M 25.71875 17.886719 " fill-opacity="1" fill-rule="nonzero"/></g><path fill="#ff3131" d="M 18.011719 11.453125 C 18.011719 11.851562 17.933594 12.238281 17.78125 12.605469 C 17.628906 12.976562 17.410156 13.300781 17.128906 13.582031 C 16.847656 13.867188 16.519531 14.082031 16.152344 14.234375 C 15.785156 14.386719 15.398438 14.464844 15 14.464844 C 14.601562 14.464844 14.214844 14.386719 13.847656 14.234375 C 13.480469 14.082031 13.152344 13.867188 12.871094 13.582031 C 12.589844 13.300781 12.371094 12.976562 12.21875 12.605469 C 12.066406 12.238281 11.988281 11.851562 11.988281 11.453125 C 11.988281 11.054688 12.066406 10.671875 12.21875 10.300781 C 12.371094 9.933594 12.589844 9.605469 12.871094 9.324219 C 13.152344 9.042969 13.480469 8.824219 13.847656 8.671875 C 14.214844 8.519531 14.601562 8.441406 15 8.441406 C 15.398438 8.441406 15.785156 8.519531 16.152344 8.671875 C 16.519531 8.824219 16.847656 9.042969 17.128906 9.324219 C 17.410156 9.605469 17.628906 9.933594 17.78125 10.300781 C 17.933594 10.671875 18.011719 11.054688 18.011719 11.453125 Z M 18.011719 11.453125 " fill-opacity="1" fill-rule="nonzero"/><path fill="#ff3131" d="M 11.246094 14.785156 C 10.980469 14.980469 10.738281 15.203125 10.523438 15.449219 C 10.132812 15.867188 9.890625 16.363281 9.796875 16.925781 C 9.707031 17.492188 9.777344 18.039062 10.011719 18.558594 C 10.316406 19.179688 10.769531 19.664062 11.363281 20.015625 C 11.960938 20.363281 12.601562 20.523438 13.292969 20.488281 L 17.238281 20.488281 C 17.835938 20.488281 18.382812 20.324219 18.878906 20 C 19.378906 19.671875 19.75 19.238281 19.992188 18.695312 C 20.234375 18.148438 20.308594 17.582031 20.214844 16.996094 C 20.121094 16.40625 19.875 15.890625 19.476562 15.449219 C 19.261719 15.203125 19.019531 14.980469 18.753906 14.785156 C 18.519531 15.050781 18.257812 15.289062 17.972656 15.5 C 17.6875 15.710938 17.382812 15.886719 17.058594 16.03125 C 16.734375 16.179688 16.398438 16.289062 16.050781 16.363281 C 15.707031 16.4375 15.355469 16.472656 15 16.472656 C 14.644531 16.472656 14.292969 16.4375 13.949219 16.363281 C 13.601562 16.289062 13.265625 16.179688 12.941406 16.03125 C 12.617188 15.886719 12.3125 15.710938 12.027344 15.5 C 11.742188 15.289062 11.480469 15.050781 11.246094 14.785156 Z M 11.246094 14.785156 " fill-opacity="1" fill-rule="nonzero"/></svg>