<svg xmlns="http://www.w3.org/2000/svg" xmlns:xlink="http://www.w3.org/1999/xlink" width="1080" zoomAndPan="magnify" viewBox="0 0 810 809.999993" height="1080" preserveAspectRatio="xMidYMid meet" version="1.2"><defs><clipPath id="1da8cedd72"><path d="M 34.285156 36.09375 L 772.285156 36.09375 L 772.285156 774 L 34.285156 774 Z M 34.285156 36.09375 "/></clipPath><clipPath id="b6ab810594"><path d="M 72.535156 36.09375 L 733.847656 36.09375 C 743.992188 36.09375 753.722656 40.121094 760.894531 47.296875 C 768.066406 54.46875 772.097656 64.199219 772.097656 74.34375 L 772.097656 735.65625 C 772.097656 745.800781 768.066406 755.527344 760.894531 762.703125 C 753.722656 769.875 743.992188 773.90625 733.847656 773.90625 L 72.535156 773.90625 C 62.390625 773.90625 52.660156 769.875 45.488281 762.703125 C 38.316406 755.527344 34.285156 745.800781 34.285156 735.65625 L 34.285156 74.34375 C 34.285156 64.199219 38.316406 54.46875 45.488281 47.296875 C 52.660156 40.121094 62.390625 36.09375 72.535156 36.09375 Z M 72.535156 36.09375 "/></clipPath><clipPath id="f0e51600f2"><rect x="0" width="475" y="0" height="810"/></clipPath><clipPath id="3c417a4fcf"><rect x="0" width="255" y="0" height="578"/></clipPath><clipPath id="80963f9416"><rect x="0" width="242" y="0" height="145"/></clipPath></defs><g id="f07951b41c"><g clip-rule="nonzero" clip-path="url(#1da8cedd72)"><g clip-rule="nonzero" clip-path="url(#b6ab810594)"><path style="fill:none;stroke-width:46;stroke-linecap:butt;stroke-linejoin:miter;stroke:#ffffff;stroke-opacity:1;stroke-miterlimit:4;" d="M 50.999715 0.00196295 L 932.749703 0.00196295 C 946.275745 0.00196295 959.249703 5.371755 968.812203 14.939463 C 978.374703 24.501963 983.749702 37.475921 983.749702 51.001962 L 983.749702 932.75195 C 983.749702 946.277992 978.374703 959.246741 968.812203 968.81445 C 959.249703 978.37695 946.275745 983.751949 932.749703 983.751949 L 50.999715 983.751949 C 37.473674 983.751949 24.499716 978.37695 14.937216 968.81445 C 5.374716 959.246741 -0.00028406 946.277992 -0.00028406 932.75195 L -0.00028406 51.001962 C -0.00028406 37.475921 5.374716 24.501963 14.937216 14.939463 C 24.499716 5.371755 37.473674 0.00196295 50.999715 0.00196295 Z M 50.999715 0.00196295 " transform="matrix(0.75,0,0,0.75,34.285369,36.092278)"/></g></g><g transform="matrix(1,0,0,1,69,0.000000000000039746)"><g clip-path="url(#f0e51600f2)"><g style="fill:#ffffff;fill-opacity:1;"><g transform="translate(0.609427, 692.502727)"><path style="stroke:none" d="M 29.3125 -494.046875 C 39.082031 -493.585938 51.875 -493.125 67.6875 -492.65625 C 83.5 -492.1875 99.082031 -491.953125 114.4375 -491.953125 C 136.300781 -491.953125 157.234375 -492.1875 177.234375 -492.65625 C 197.242188 -493.125 211.4375 -493.359375 219.8125 -493.359375 C 257.488281 -493.359375 288.769531 -488.003906 313.65625 -477.296875 C 338.550781 -466.597656 357.160156 -452.0625 369.484375 -433.6875 C 381.816406 -415.3125 387.984375 -394.726562 387.984375 -371.9375 C 387.984375 -357.976562 385.191406 -343.085938 379.609375 -327.265625 C 374.023438 -311.453125 364.367188 -296.566406 350.640625 -282.609375 C 336.921875 -268.660156 318.195312 -257.148438 294.46875 -248.078125 C 270.75 -239.003906 240.742188 -234.46875 204.453125 -234.46875 L 137.46875 -234.46875 L 137.46875 -248.421875 L 197.484375 -248.421875 C 230.515625 -248.421875 255.75 -253.65625 273.1875 -264.125 C 290.632812 -274.59375 302.5 -288.546875 308.78125 -305.984375 C 315.0625 -323.429688 318.203125 -342.859375 318.203125 -364.265625 C 318.203125 -401.015625 309.476562 -429.503906 292.03125 -449.734375 C 274.582031 -469.972656 244.691406 -480.09375 202.359375 -480.09375 C 180.960938 -480.09375 167.007812 -476.140625 160.5 -468.234375 C 153.988281 -460.328125 150.734375 -444.273438 150.734375 -420.078125 L 150.734375 -73.96875 C 150.734375 -57.21875 152.125 -44.65625 154.90625 -36.28125 C 157.695312 -27.90625 163.164062 -22.320312 171.3125 -19.53125 C 179.457031 -16.75 191.4375 -14.890625 207.25 -13.953125 L 207.25 0 C 196.550781 -0.925781 183.175781 -1.503906 167.125 -1.734375 C 151.070312 -1.972656 134.90625 -2.09375 118.625 -2.09375 C 100.476562 -2.09375 83.5 -1.972656 67.6875 -1.734375 C 51.875 -1.503906 39.082031 -0.925781 29.3125 0 L 29.3125 -13.953125 C 45.125 -14.890625 57.097656 -16.75 65.234375 -19.53125 C 73.378906 -22.320312 78.847656 -27.90625 81.640625 -36.28125 C 84.429688 -44.65625 85.828125 -57.21875 85.828125 -73.96875 L 85.828125 -420.078125 C 85.828125 -437.296875 84.429688 -449.972656 81.640625 -458.109375 C 78.847656 -466.253906 73.378906 -471.835938 65.234375 -474.859375 C 57.097656 -477.878906 45.125 -479.625 29.3125 -480.09375 Z M 140.265625 -246.328125 C 165.378906 -245.398438 185.144531 -244.351562 199.5625 -243.1875 C 213.988281 -242.019531 225.738281 -240.972656 234.8125 -240.046875 C 243.882812 -239.117188 252.609375 -237.957031 260.984375 -236.5625 C 292.148438 -231.4375 314.59375 -222.015625 328.3125 -208.296875 C 342.039062 -194.578125 352.160156 -173.296875 358.671875 -144.453125 L 376.125 -73.265625 C 380.769531 -52.796875 385.535156 -38.023438 390.421875 -28.953125 C 395.304688 -19.890625 402.867188 -15.585938 413.109375 -16.046875 C 421.015625 -16.515625 427.640625 -19.070312 432.984375 -23.71875 C 438.335938 -28.375 444.039062 -34.65625 450.09375 -42.5625 L 460.5625 -34.890625 C 450.789062 -20.472656 440.671875 -9.425781 430.203125 -1.75 C 419.734375 5.925781 404.960938 9.765625 385.890625 9.765625 C 368.679688 9.765625 353.5625 4.648438 340.53125 -5.578125 C 327.507812 -15.816406 317.738281 -35.820312 311.21875 -65.59375 L 295.875 -135.375 C 291.6875 -155.375 286.914062 -172.703125 281.5625 -187.359375 C 276.21875 -202.015625 268.773438 -213.53125 259.234375 -221.90625 C 249.703125 -230.28125 235.628906 -234.46875 217.015625 -234.46875 L 141.65625 -234.46875 Z M 140.265625 -246.328125 "/></g></g></g></g><g transform="matrix(1,0,0,1,451,0.000000000000039746)"><g clip-path="url(#3c417a4fcf)"><g style="fill:#ffffff;fill-opacity:1;"><g transform="translate(1.580969, 458.85325)"><path style="stroke:none" d="M 119.484375 -335.578125 C 135.046875 -335.578125 146.867188 -333.785156 154.953125 -330.203125 C 163.046875 -326.628906 170.203125 -322.664062 176.421875 -318.3125 C 180.160156 -316.132812 183.195312 -314.5 185.53125 -313.40625 C 187.863281 -312.320312 190.117188 -311.78125 192.296875 -311.78125 C 195.410156 -311.78125 197.664062 -313.488281 199.0625 -316.90625 C 200.457031 -320.332031 201.625 -325.46875 202.5625 -332.3125 L 213.296875 -332.3125 C 212.984375 -327.019531 212.59375 -320.71875 212.125 -313.40625 C 211.664062 -306.09375 211.359375 -296.445312 211.203125 -284.46875 C 211.046875 -272.488281 210.96875 -256.695312 210.96875 -237.09375 L 200.234375 -237.09375 C 199.296875 -252.03125 196.023438 -266.34375 190.421875 -280.03125 C 184.828125 -293.726562 176.660156 -304.929688 165.921875 -313.640625 C 155.191406 -322.359375 141.113281 -326.71875 123.6875 -326.71875 C 107.195312 -326.71875 93.582031 -321.738281 82.84375 -311.78125 C 72.113281 -301.820312 66.75 -288.753906 66.75 -272.578125 C 66.75 -258.566406 70.328125 -246.816406 77.484375 -237.328125 C 84.640625 -227.835938 94.207031 -219.28125 106.1875 -211.65625 C 118.164062 -204.039062 131.15625 -195.875 145.15625 -187.15625 C 161.332031 -177.195312 175.722656 -167.316406 188.328125 -157.515625 C 200.929688 -147.722656 210.890625 -136.910156 218.203125 -125.078125 C 225.515625 -113.253906 229.171875 -98.941406 229.171875 -82.140625 C 229.171875 -62.234375 224.65625 -45.742188 215.625 -32.671875 C 206.601562 -19.597656 194.625 -9.796875 179.6875 -3.265625 C 164.757812 3.265625 148.269531 6.53125 130.21875 6.53125 C 113.726562 6.53125 100.660156 4.660156 91.015625 0.921875 C 81.367188 -2.804688 73.125 -6.691406 66.28125 -10.734375 C 59.4375 -15.085938 54.144531 -17.265625 50.40625 -17.265625 C 47.289062 -17.265625 45.035156 -15.550781 43.640625 -12.125 C 42.242188 -8.707031 41.078125 -3.578125 40.140625 3.265625 L 29.40625 3.265625 C 30.03125 -3.265625 30.414062 -10.960938 30.5625 -19.828125 C 30.71875 -28.703125 30.875 -40.296875 31.03125 -54.609375 C 31.1875 -68.921875 31.265625 -86.96875 31.265625 -108.75 L 42 -108.75 C 43.25 -90.082031 46.75 -72.65625 52.5 -56.46875 C 58.257812 -40.289062 67.128906 -27.300781 79.109375 -17.5 C 91.085938 -7.695312 107.035156 -2.796875 126.953125 -2.796875 C 137.222656 -2.796875 146.945312 -4.894531 156.125 -9.09375 C 165.300781 -13.300781 172.84375 -19.992188 178.75 -29.171875 C 184.664062 -38.347656 187.625 -50.25 187.625 -64.875 C 187.625 -77.632812 184.585938 -88.757812 178.515625 -98.25 C 172.453125 -107.738281 163.972656 -116.601562 153.078125 -124.84375 C 142.191406 -133.09375 129.4375 -141.570312 114.8125 -150.28125 C 100.1875 -159.3125 86.492188 -168.492188 73.734375 -177.828125 C 60.984375 -187.160156 50.796875 -197.972656 43.171875 -210.265625 C 35.546875 -222.554688 31.734375 -237.414062 31.734375 -254.84375 C 31.734375 -273.195312 35.851562 -288.363281 44.09375 -300.34375 C 52.34375 -312.320312 63.15625 -321.1875 76.53125 -326.9375 C 89.914062 -332.695312 104.234375 -335.578125 119.484375 -335.578125 Z M 119.484375 -335.578125 "/></g></g></g></g><g transform="matrix(1,0,0,1,457,474)"><g clip-path="url(#80963f9416)"><g style="fill:#ff3131;fill-opacity:1;"><g transform="translate(1.414867, 116.711984)"><path style="stroke:none" d="M 14.515625 -15.046875 C 17.304688 -15.046875 19.523438 -14.3125 21.171875 -12.84375 C 22.828125 -11.375 23.65625 -9.351562 23.65625 -6.78125 C 23.65625 -4.195312 22.828125 -2.171875 21.171875 -0.703125 C 19.523438 0.765625 17.304688 1.5 14.515625 1.5 C 11.722656 1.5 9.5 0.765625 7.84375 -0.703125 C 6.195312 -2.171875 5.375 -4.195312 5.375 -6.78125 C 5.375 -9.351562 6.195312 -11.375 7.84375 -12.84375 C 9.5 -14.3125 11.722656 -15.046875 14.515625 -15.046875 Z M 14.515625 -15.046875 "/></g></g><g style="fill:#ff3131;fill-opacity:1;"><g transform="translate(30.442316, 116.711984)"><path style="stroke:none" d="M 30.53125 -57.09375 C 33.332031 -57.09375 35.894531 -56.785156 38.21875 -56.171875 C 40.550781 -55.566406 42.46875 -54.796875 43.96875 -53.859375 C 45.832031 -52.710938 47.285156 -51.296875 48.328125 -49.609375 C 49.367188 -47.929688 49.890625 -45.984375 49.890625 -43.765625 C 49.890625 -41.253906 49.097656 -39.191406 47.515625 -37.578125 C 45.941406 -35.960938 43.898438 -35.15625 41.390625 -35.15625 C 38.878906 -35.15625 36.867188 -35.867188 35.359375 -37.296875 C 33.859375 -38.734375 33.109375 -40.671875 33.109375 -43.109375 C 33.109375 -45.398438 33.828125 -47.316406 35.265625 -48.859375 C 36.703125 -50.398438 38.347656 -51.425781 40.203125 -51.9375 C 39.628906 -52.644531 38.769531 -53.25 37.625 -53.75 C 36.476562 -54.257812 35.191406 -54.515625 33.765625 -54.515625 C 31.535156 -54.515625 29.578125 -53.867188 27.890625 -52.578125 C 26.210938 -51.285156 24.800781 -49.492188 23.65625 -47.203125 C 22.507812 -44.910156 21.628906 -42.222656 21.015625 -39.140625 C 20.410156 -36.054688 20.109375 -32.6875 20.109375 -29.03125 C 20.109375 -23.507812 20.804688 -19.171875 22.203125 -16.015625 C 23.597656 -12.867188 25.390625 -10.648438 27.578125 -9.359375 C 29.765625 -8.066406 32.039062 -7.421875 34.40625 -7.421875 C 35.769531 -7.421875 37.253906 -7.632812 38.859375 -8.0625 C 40.472656 -8.488281 42.125 -9.347656 43.8125 -10.640625 C 45.5 -11.929688 47.054688 -13.757812 48.484375 -16.125 L 50.3125 -15.484375 C 49.53125 -12.828125 48.242188 -10.171875 46.453125 -7.515625 C 44.660156 -4.867188 42.328125 -2.703125 39.453125 -1.015625 C 36.585938 0.660156 33.078125 1.5 28.921875 1.5 C 24.265625 1.5 20.050781 0.476562 16.28125 -1.5625 C 12.519531 -3.601562 9.507812 -6.753906 7.25 -11.015625 C 5 -15.285156 3.875 -20.789062 3.875 -27.53125 C 3.875 -33.976562 5.035156 -39.40625 7.359375 -43.8125 C 9.691406 -48.21875 12.863281 -51.53125 16.875 -53.75 C 20.894531 -55.976562 25.445312 -57.09375 30.53125 -57.09375 Z M 30.53125 -57.09375 "/></g></g><g style="fill:#ff3131;fill-opacity:1;"><g transform="translate(83.766828, 116.711984)"><path style="stroke:none" d="M 30.3125 -57.09375 C 35.550781 -57.09375 40.140625 -56.125 44.078125 -54.1875 C 48.023438 -52.25 51.109375 -49.128906 53.328125 -44.828125 C 55.546875 -40.535156 56.65625 -34.835938 56.65625 -27.734375 C 56.65625 -20.640625 55.546875 -14.957031 53.328125 -10.6875 C 51.109375 -6.425781 48.023438 -3.328125 44.078125 -1.390625 C 40.140625 0.535156 35.550781 1.5 30.3125 1.5 C 25.226562 1.5 20.695312 0.535156 16.71875 -1.390625 C 12.738281 -3.328125 9.617188 -6.425781 7.359375 -10.6875 C 5.109375 -14.957031 3.984375 -20.640625 3.984375 -27.734375 C 3.984375 -34.835938 5.109375 -40.535156 7.359375 -44.828125 C 9.617188 -49.128906 12.738281 -52.25 16.71875 -54.1875 C 20.695312 -56.125 25.226562 -57.09375 30.3125 -57.09375 Z M 30.3125 -54.9375 C 27.445312 -54.9375 25.046875 -52.800781 23.109375 -48.53125 C 21.179688 -44.269531 20.21875 -37.335938 20.21875 -27.734375 C 20.21875 -18.128906 21.179688 -11.210938 23.109375 -6.984375 C 25.046875 -2.753906 27.445312 -0.640625 30.3125 -0.640625 C 33.257812 -0.640625 35.679688 -2.753906 37.578125 -6.984375 C 39.472656 -11.210938 40.421875 -18.128906 40.421875 -27.734375 C 40.421875 -37.335938 39.472656 -44.269531 37.578125 -48.53125 C 35.679688 -52.800781 33.257812 -54.9375 30.3125 -54.9375 Z M 30.3125 -54.9375 "/></g></g><g style="fill:#ff3131;fill-opacity:1;"><g transform="translate(144.509454, 116.711984)"><path style="stroke:none" d="M 41.609375 -57.09375 C 44.617188 -57.09375 47.054688 -56.710938 48.921875 -55.953125 C 50.785156 -55.203125 52.289062 -54.179688 53.4375 -52.890625 C 54.582031 -51.535156 55.40625 -49.765625 55.90625 -47.578125 C 56.40625 -45.390625 56.65625 -42.503906 56.65625 -38.921875 L 56.65625 -10 C 56.65625 -6.988281 57.117188 -4.945312 58.046875 -3.875 C 58.984375 -2.800781 60.597656 -2.265625 62.890625 -2.265625 L 62.890625 0 C 61.609375 -0.0703125 59.65625 -0.160156 57.03125 -0.265625 C 54.414062 -0.378906 51.851562 -0.4375 49.34375 -0.4375 C 46.769531 -0.4375 44.226562 -0.378906 41.71875 -0.265625 C 39.207031 -0.160156 37.304688 -0.0703125 36.015625 0 L 36.015625 -2.265625 C 37.953125 -2.265625 39.296875 -2.800781 40.046875 -3.875 C 40.796875 -4.945312 41.171875 -6.988281 41.171875 -10 L 41.171875 -43.4375 C 41.171875 -45.226562 41.023438 -46.785156 40.734375 -48.109375 C 40.453125 -49.441406 39.898438 -50.484375 39.078125 -51.234375 C 38.253906 -51.984375 37.019531 -52.359375 35.375 -52.359375 C 33.507812 -52.359375 31.785156 -51.820312 30.203125 -50.75 C 28.628906 -49.675781 27.359375 -48.1875 26.390625 -46.28125 C 25.421875 -44.382812 24.9375 -42.253906 24.9375 -39.890625 L 24.9375 -10 C 24.9375 -6.988281 25.332031 -4.945312 26.125 -3.875 C 26.914062 -2.800781 28.242188 -2.265625 30.109375 -2.265625 L 30.109375 0 C 28.960938 -0.0703125 27.1875 -0.160156 24.78125 -0.265625 C 22.382812 -0.378906 19.929688 -0.4375 17.421875 -0.4375 C 14.691406 -0.4375 11.894531 -0.378906 9.03125 -0.265625 C 6.164062 -0.160156 4.015625 -0.0703125 2.578125 0 L 2.578125 -2.265625 C 5.085938 -2.265625 6.863281 -2.800781 7.90625 -3.875 C 8.945312 -4.945312 9.46875 -6.988281 9.46875 -10 L 9.46875 -43.859375 C 9.46875 -47.085938 8.984375 -49.472656 8.015625 -51.015625 C 7.046875 -52.554688 5.234375 -53.328125 2.578125 -53.328125 L 2.578125 -55.578125 C 4.867188 -55.367188 7.09375 -55.265625 9.25 -55.265625 C 12.257812 -55.265625 15.070312 -55.390625 17.6875 -55.640625 C 20.300781 -55.890625 22.71875 -56.265625 24.9375 -56.765625 L 24.9375 -47.09375 C 26.664062 -50.675781 29 -53.238281 31.9375 -54.78125 C 34.875 -56.320312 38.097656 -57.09375 41.609375 -57.09375 Z M 73.96875 -57.09375 C 76.976562 -57.09375 79.414062 -56.710938 81.28125 -55.953125 C 83.144531 -55.203125 84.648438 -54.179688 85.796875 -52.890625 C 86.941406 -51.535156 87.765625 -49.765625 88.265625 -47.578125 C 88.765625 -45.390625 89.015625 -42.503906 89.015625 -38.921875 L 89.015625 -10 C 89.015625 -6.988281 89.535156 -4.945312 90.578125 -3.875 C 91.617188 -2.800781 93.394531 -2.265625 95.90625 -2.265625 L 95.90625 0 C 94.539062 -0.0703125 92.492188 -0.160156 89.765625 -0.265625 C 87.046875 -0.378906 84.363281 -0.4375 81.71875 -0.4375 C 79.132812 -0.4375 76.585938 -0.378906 74.078125 -0.265625 C 71.566406 -0.160156 69.664062 -0.0703125 68.375 0 L 68.375 -2.265625 C 70.3125 -2.265625 71.65625 -2.800781 72.40625 -3.875 C 73.164062 -4.945312 73.546875 -6.988281 73.546875 -10 L 73.546875 -43.4375 C 73.546875 -45.226562 73.382812 -46.785156 73.0625 -48.109375 C 72.738281 -49.441406 72.128906 -50.484375 71.234375 -51.234375 C 70.335938 -51.984375 68.957031 -52.359375 67.09375 -52.359375 C 65.226562 -52.359375 63.503906 -51.785156 61.921875 -50.640625 C 60.347656 -49.492188 59.078125 -47.953125 58.109375 -46.015625 C 57.140625 -44.078125 56.617188 -41.925781 56.546875 -39.5625 L 56.015625 -46.125 C 57.953125 -50.425781 60.515625 -53.328125 63.703125 -54.828125 C 66.890625 -56.335938 70.3125 -57.09375 73.96875 -57.09375 Z M 73.96875 -57.09375 "/></g></g></g></g></g></svg>