<svg xmlns="http://www.w3.org/2000/svg" xmlns:xlink="http://www.w3.org/1999/xlink" width="80" zoomAndPan="magnify" viewBox="0 0 60 60" height="80" preserveAspectRatio="xMidYMid meet" version="1.0"><defs><clipPath id="935cbc2d09"><path d="M 2.023438 2.023438 L 58.273438 2.023438 L 58.273438 58.273438 L 2.023438 58.273438 Z M 2.023438 2.023438 " clip-rule="nonzero"/></clipPath></defs><g clip-path="url(#935cbc2d09)"><path fill="#ffffff" d="M 18.496094 2.21875 C 15.503906 2.359375 13.460938 2.839844 11.675781 3.539062 C 9.824219 4.257812 8.257812 5.222656 6.703125 6.789062 C 5.140625 8.355469 4.183594 9.921875 3.46875 11.773438 C 2.777344 13.566406 2.308594 15.609375 2.175781 18.601562 C 2.042969 21.601562 2.015625 22.554688 2.027344 30.191406 C 2.039062 37.824219 2.074219 38.785156 2.21875 41.785156 C 2.363281 44.777344 2.839844 46.816406 3.539062 48.605469 C 4.257812 50.453125 5.222656 52.015625 6.789062 53.578125 C 8.355469 55.136719 9.921875 56.09375 11.773438 56.808594 C 13.5625 57.5 15.609375 57.972656 18.601562 58.101562 C 21.601562 58.234375 22.554688 58.265625 30.191406 58.25 C 37.824219 58.234375 38.78125 58.199219 41.78125 58.058594 C 44.773438 57.914062 46.8125 57.433594 48.601562 56.738281 C 50.449219 56.015625 52.015625 55.054688 53.574219 53.488281 C 55.132812 51.921875 56.089844 50.351562 56.808594 48.5 C 57.5 46.710938 57.96875 44.667969 58.101562 41.679688 C 58.230469 38.679688 58.261719 37.71875 58.25 30.085938 C 58.234375 22.453125 58.199219 21.496094 58.058594 18.496094 C 57.914062 15.503906 57.4375 13.464844 56.738281 11.675781 C 56.015625 9.824219 55.054688 8.261719 53.488281 6.703125 C 51.921875 5.144531 50.351562 4.183594 48.5 3.46875 C 46.710938 2.777344 44.667969 2.304688 41.675781 2.175781 C 38.675781 2.042969 37.71875 2.015625 30.082031 2.027344 C 22.449219 2.039062 21.492188 2.074219 18.496094 2.21875 M 18.824219 53.039062 C 16.082031 52.921875 14.59375 52.464844 13.601562 52.082031 C 12.285156 51.574219 11.351562 50.964844 10.363281 49.988281 C 9.378906 49.003906 8.769531 48.070312 8.253906 46.761719 C 7.871094 45.769531 7.40625 44.28125 7.277344 41.539062 C 7.136719 38.578125 7.105469 37.6875 7.089844 30.183594 C 7.078125 22.679688 7.105469 21.789062 7.234375 18.824219 C 7.351562 16.082031 7.808594 14.59375 8.191406 13.605469 C 8.699219 12.289062 9.304688 11.355469 10.285156 10.367188 C 11.269531 9.378906 12.203125 8.769531 13.515625 8.257812 C 14.507812 7.871094 15.992188 7.410156 18.734375 7.277344 C 21.699219 7.136719 22.585938 7.109375 30.089844 7.09375 C 37.597656 7.078125 38.488281 7.105469 41.453125 7.238281 C 44.191406 7.355469 45.683594 7.808594 46.671875 8.191406 C 47.988281 8.703125 48.925781 9.304688 49.910156 10.289062 C 50.894531 11.273438 51.507812 12.203125 52.019531 13.519531 C 52.40625 14.507812 52.867188 15.996094 52.996094 18.734375 C 53.136719 21.699219 53.167969 22.589844 53.183594 30.089844 C 53.195312 37.597656 53.167969 38.488281 53.039062 41.449219 C 52.921875 44.191406 52.464844 45.683594 52.082031 46.671875 C 51.574219 47.984375 50.96875 48.921875 49.984375 49.90625 C 49 50.890625 48.070312 51.503906 46.753906 52.015625 C 45.765625 52.402344 44.277344 52.863281 41.539062 52.996094 C 38.574219 53.136719 37.6875 53.167969 30.179688 53.179688 C 22.675781 53.191406 21.785156 53.167969 18.820312 53.035156 M 41.742188 15.109375 C 41.746094 16.972656 43.261719 18.480469 45.121094 18.476562 C 46.984375 18.472656 48.488281 16.960938 48.488281 15.097656 C 48.484375 13.234375 46.96875 11.726562 45.105469 11.730469 C 43.242188 11.734375 41.738281 13.25 41.738281 15.109375 M 15.703125 30.164062 C 15.71875 38.136719 22.195312 44.585938 30.164062 44.570312 C 38.136719 44.554688 44.585938 38.082031 44.570312 30.109375 C 44.554688 22.140625 38.082031 15.6875 30.109375 15.703125 C 22.136719 15.71875 15.6875 22.195312 15.703125 30.164062 M 20.765625 30.15625 C 20.757812 24.980469 24.945312 20.777344 30.117188 20.769531 C 35.292969 20.757812 39.496094 24.945312 39.507812 30.121094 C 39.519531 35.296875 35.328125 39.5 30.15625 39.507812 C 24.980469 39.519531 20.777344 35.328125 20.769531 30.15625 " fill-opacity="1" fill-rule="nonzero"/></g></svg>