<svg xmlns="http://www.w3.org/2000/svg" xmlns:xlink="http://www.w3.org/1999/xlink" width="80" zoomAndPan="magnify" viewBox="0 0 60 60" height="80" preserveAspectRatio="xMidYMid meet" version="1.0"><defs><clipPath id="cf3e748e11"><path d="M 1.902344 2.199219 L 58 2.199219 L 58 57.699219 L 1.902344 57.699219 Z M 1.902344 2.199219 " clip-rule="nonzero"/></clipPath></defs><g clip-path="url(#cf3e748e11)"><path fill="#ffffff" d="M 48.894531 49.75 L 40.722656 49.75 L 40.722656 36.8125 C 40.722656 33.730469 40.667969 29.757812 36.472656 29.757812 C 32.28125 29.757812 31.566406 33.121094 31.566406 36.589844 L 31.566406 49.75 L 23.394531 49.75 L 23.394531 23.144531 L 31.242188 23.144531 L 31.242188 26.78125 L 31.351562 26.78125 C 32.949219 24.015625 35.925781 22.363281 39.089844 22.484375 C 47.375 22.484375 48.898438 27.992188 48.898438 35.15625 L 48.898438 49.75 Z M 14.171875 19.511719 C 11.550781 19.511719 9.425781 17.363281 9.425781 14.71875 C 9.425781 12.070312 11.550781 9.921875 14.167969 9.921875 C 16.789062 9.921875 18.910156 12.066406 18.910156 14.714844 C 18.910156 17.363281 16.789062 19.511719 14.171875 19.511719 M 18.257812 49.75 L 10.078125 49.75 L 10.078125 23.144531 L 18.257812 23.144531 Z M 52.96875 2.25 L 5.972656 2.25 C 3.75 2.226562 1.925781 4.023438 1.902344 6.269531 L 1.902344 53.976562 C 1.925781 56.222656 3.746094 58.019531 5.972656 57.996094 L 52.96875 57.996094 C 55.195312 58.027344 57.023438 56.226562 57.054688 53.976562 L 57.054688 6.265625 C 57.023438 4.015625 55.195312 2.21875 52.96875 2.246094 " fill-opacity="1" fill-rule="nonzero"/></g></svg>